<svg width="24" height="24" viewBox="0 0 24 24" fill="none" xmlns="http://www.w3.org/2000/svg">
<path d="M11.999 7.37695C10.7726 7.37695 9.59651 7.86412 8.72934 8.73129C7.86217 9.59846 7.375 10.7746 7.375 12.001C7.375 13.2273 7.86217 14.4034 8.72934 15.2706C9.59651 16.1378 10.7726 16.625 11.999 16.625C13.2254 16.625 14.4015 16.1378 15.2687 15.2706C16.1358 14.4034 16.623 13.2273 16.623 12.001C16.623 10.7746 16.1358 9.59846 15.2687 8.73129C14.4015 7.86412 13.2254 7.37695 11.999 7.37695ZM11.999 15.004C11.2023 15.004 10.4382 14.6875 9.87485 14.1241C9.31149 13.5607 8.995 12.7967 8.995 12C8.995 11.2032 9.31149 10.4392 9.87485 9.8758C10.4382 9.31245 11.2023 8.99595 11.999 8.99595C12.7957 8.99595 13.5598 9.31245 14.1231 9.8758C14.6865 10.4392 15.003 11.2032 15.003 12C15.003 12.7967 14.6865 13.5607 14.1231 14.1241C13.5598 14.6875 12.7957 15.004 11.999 15.004Z" fill="white"/>
<path d="M16.806 8.28503C17.4014 8.28503 17.884 7.80239 17.884 7.20703C17.884 6.61166 17.4014 6.12903 16.806 6.12903C16.2107 6.12903 15.728 6.61166 15.728 7.20703C15.728 7.80239 16.2107 8.28503 16.806 8.28503Z" fill="white"/>
<path d="M20.533 6.11101C20.3015 5.51319 19.9477 4.97029 19.4943 4.51706C19.041 4.06384 18.4979 3.71028 17.9 3.479C17.2003 3.21636 16.4612 3.07435 15.714 3.059C14.751 3.017 14.446 3.005 12.004 3.005C9.56201 3.005 9.24901 3.005 8.29401 3.059C7.5474 3.07356 6.80877 3.21561 6.11001 3.479C5.51195 3.71001 4.96878 4.06348 4.51535 4.51673C4.06192 4.96999 3.70824 5.51303 3.47701 6.11101C3.21432 6.81062 3.07263 7.54984 3.05801 8.29701C3.01501 9.25901 3.00201 9.56401 3.00201 12.007C3.00201 14.449 3.00201 14.76 3.05801 15.717C3.07301 16.465 3.21401 17.203 3.47701 17.904C3.70889 18.5018 4.06291 19.0446 4.51645 19.4978C4.96999 19.951 5.51308 20.3046 6.11101 20.536C6.80845 20.8092 7.54739 20.9614 8.29601 20.986C9.25901 21.028 9.56401 21.041 12.006 21.041C14.448 21.041 14.761 21.041 15.716 20.986C16.4631 20.9708 17.2022 20.8291 17.902 20.567C18.4998 20.3352 19.0426 19.9813 19.496 19.528C19.9493 19.0746 20.3032 18.5318 20.535 17.934C20.798 17.234 20.939 16.496 20.954 15.748C20.997 14.786 21.01 14.481 21.01 12.038C21.01 9.59501 21.01 9.28501 20.954 8.32801C20.9424 7.57028 20.7999 6.82025 20.533 6.11101ZM19.315 15.643C19.3086 16.2193 19.2034 16.7902 19.004 17.331C18.8538 17.7199 18.6239 18.073 18.3291 18.3677C18.0342 18.6624 17.681 18.8921 17.292 19.042C16.7572 19.2405 16.1924 19.3456 15.622 19.353C14.672 19.397 14.404 19.408 11.968 19.408C9.53001 19.408 9.28101 19.408 8.31301 19.353C7.74294 19.346 7.17834 19.2408 6.64401 19.042C6.2537 18.893 5.89902 18.6637 5.6029 18.369C5.30679 18.0742 5.07585 17.7206 4.92501 17.331C4.72846 16.7961 4.62333 16.2318 4.61401 15.662C4.57101 14.712 4.56101 14.444 4.56101 12.008C4.56101 9.57101 4.56101 9.32201 4.61401 8.353C4.62048 7.77703 4.72567 7.20642 4.92501 6.66601C5.23001 5.87701 5.85501 5.25601 6.64401 4.95401C7.1786 4.75615 7.74304 4.65097 8.31301 4.64301C9.26401 4.60001 9.53101 4.588 11.968 4.588C14.405 4.588 14.655 4.58801 15.622 4.64301C16.1924 4.64987 16.7574 4.75508 17.292 4.95401C17.6809 5.10428 18.0342 5.33421 18.329 5.62904C18.6238 5.92386 18.8537 6.27708 19.004 6.66601C19.2006 7.20095 19.3057 7.76517 19.315 8.33501C19.358 9.28601 19.369 9.55301 19.369 11.99C19.369 14.426 19.369 14.688 19.326 15.644H19.315V15.643Z" fill="white"/>
</svg>
